<svg width="18" height="13" viewBox="0 0 18 13" fill="none" xmlns="http://www.w3.org/2000/svg">
<path d="M16.25 0H1.25C0.918479 0 0.600537 0.131696 0.366116 0.366116C0.131696 0.600537 0 0.918479 0 1.25V11.25C0 11.5815 0.131696 11.8995 0.366116 12.1339C0.600537 12.3683 0.918479 12.5 1.25 12.5H16.25C16.5815 12.5 16.8995 12.3683 17.1339 12.1339C17.3683 11.8995 17.5 11.5815 17.5 11.25V1.25C17.5 0.918479 17.3683 0.600537 17.1339 0.366116C16.8995 0.131696 16.5815 0 16.25 0ZM16.25 1.25V3.125H1.25V1.25H16.25ZM1.25 11.25V4.375H16.25V11.25H1.25Z" fill="white"/>
<path d="M8.75 8.75H2.5V10H8.75V8.75Z" fill="white"/>
</svg>
